<svg width="22" height="22" viewBox="0 0 22 22" fill="none" xmlns="http://www.w3.org/2000/svg">
<path d="M17.4163 12.8333C18.7822 11.495 20.1663 9.89083 20.1663 7.79167C20.1663 6.45453 19.6352 5.17217 18.6897 4.22667C17.7442 3.28117 16.4618 2.75 15.1247 2.75C13.5113 2.75 12.3747 3.20833 10.9997 4.58333C9.62467 3.20833 8.48801 2.75 6.87467 2.75C5.53754 2.75 4.25517 3.28117 3.30968 4.22667C2.36418 5.17217 1.83301 6.45453 1.83301 7.79167C1.83301 9.9 3.20801 11.5042 4.58301 12.8333L10.9997 19.25L17.4163 12.8333Z" stroke="#BE185D" stroke-width="1.83333" stroke-linecap="round" stroke-linejoin="round"/>
<path d="M11.0003 4.58325L8.28696 7.29659C8.10072 7.48148 7.9529 7.70141 7.85202 7.94369C7.75115 8.18597 7.69922 8.44581 7.69922 8.70825C7.69922 8.97069 7.75115 9.23054 7.85202 9.47282C7.9529 9.7151 8.10072 9.93502 8.28696 10.1199C9.03863 10.8716 10.2395 10.8991 11.037 10.1841L12.9345 8.44242C13.4101 8.01085 14.0293 7.77178 14.6715 7.77178C15.3138 7.77178 15.933 8.01085 16.4086 8.44242L19.122 10.8808" stroke="#BE185D" stroke-width="1.83333" stroke-linecap="round" stroke-linejoin="round"/>
<path d="M16.5003 13.7501L14.667 11.9167" stroke="#BE185D" stroke-width="1.83333" stroke-linecap="round" stroke-linejoin="round"/>
<path d="M13.7503 16.5001L11.917 14.6667" stroke="#BE185D" stroke-width="1.83333" stroke-linecap="round" stroke-linejoin="round"/>
</svg>
